<svg width="62" height="24" viewBox="0 0 62 24" fill="none" xmlns="http://www.w3.org/2000/svg">
<path d="M15.657 9.23438C16.0242 8.1875 16.696 7.46094 17.6726 7.05469C18.1804 6.84766 18.7175 6.74414 19.2839 6.74414C20.8269 6.74414 21.9597 7.31055 22.6824 8.44336C23.1082 9.13086 23.321 9.94336 23.321 10.8809C23.321 12.0879 22.9656 13.0898 22.2546 13.8867C21.8992 14.2852 21.4753 14.5898 20.9832 14.8008C21.0925 14.8594 21.2566 14.9551 21.4753 15.0879C21.698 15.2246 21.8777 15.332 22.0144 15.4102C22.3894 15.625 22.7722 15.7656 23.1628 15.832L22.8523 16.5938C22.4031 16.5195 21.9226 16.3223 21.4109 16.002C20.8289 15.6426 20.4031 15.4082 20.1335 15.2988C19.864 15.1934 19.6023 15.1289 19.3484 15.1055C17.8328 15.0938 16.7273 14.5195 16.032 13.3828C15.6023 12.6992 15.3875 11.8652 15.3875 10.8809C15.3875 10.2871 15.4773 9.73828 15.657 9.23438ZM20.9363 8.00977C20.4988 7.70508 19.9792 7.55273 19.3777 7.55273C18.78 7.55273 18.2605 7.69922 17.8191 7.99219C16.948 8.57422 16.5125 9.53711 16.5125 10.8809C16.5125 12.2441 16.9441 13.2246 17.8074 13.8223C18.2449 14.127 18.7273 14.2793 19.2546 14.2793C20.2273 14.2793 20.9695 13.9395 21.4812 13.2598C21.9695 12.6074 22.2136 11.8145 22.2136 10.8809C22.2136 9.56445 21.7878 8.60742 20.9363 8.00977ZM28.2839 13.9922C27.9324 14.7344 27.3601 15.1055 26.5671 15.1055C26.2468 15.1055 25.9578 15.0352 25.7 14.8945C25.446 14.75 25.2449 14.5957 25.0964 14.4316C24.9519 14.2676 24.8308 14.0449 24.7332 13.7637C24.6316 13.4824 24.5808 13.1621 24.5808 12.8027V9.50391H25.5242V12.4746C25.5242 13.7285 25.9734 14.3555 26.8718 14.3555C27.1023 14.3555 27.3132 14.293 27.5046 14.168C27.7976 13.9805 28.0281 13.6719 28.196 13.2422C28.2546 13.0938 28.2839 12.9766 28.2839 12.8906V9.50391H29.2273V15H28.2839V13.9922ZM32.4382 9.50391V15H31.4949V10.2539H30.5222V9.50391H32.4382ZM31.2722 7.33008C31.2722 7.13477 31.3386 6.96875 31.4714 6.83203C31.6082 6.69141 31.7722 6.62109 31.9636 6.62109C32.155 6.62109 32.3171 6.69141 32.45 6.83203C32.5867 6.96875 32.655 7.13477 32.655 7.33008C32.655 7.52539 32.5867 7.69336 32.45 7.83398C32.3171 7.9707 32.155 8.03906 31.9636 8.03906C31.7722 8.03906 31.6082 7.9707 31.4714 7.83398C31.3386 7.69336 31.2722 7.52539 31.2722 7.33008ZM36.6218 14.3496C37.0789 14.3496 37.5183 14.1953 37.9402 13.8867L38.3035 14.5195C37.9949 14.7461 37.7195 14.9004 37.4773 14.9824C37.2351 15.0645 36.8699 15.1055 36.3816 15.1055C35.5769 15.1055 34.9382 14.8457 34.4656 14.3262C33.9968 13.8066 33.7625 13.1152 33.7625 12.252C33.7625 11.3887 33.9968 10.6973 34.4656 10.1777C34.9382 9.6582 35.5769 9.39844 36.3816 9.39844C36.8699 9.39844 37.2351 9.43945 37.4773 9.52148C37.7195 9.60352 37.9949 9.75781 38.3035 9.98438L37.9402 10.6172C37.5183 10.3086 37.0789 10.1543 36.6218 10.1543H36.5867C36.0164 10.1543 35.5593 10.3594 35.2156 10.7695C34.8757 11.1797 34.7058 11.6738 34.7058 12.252C34.7058 12.8301 34.8757 13.3242 35.2156 13.7344C35.5593 14.1445 36.0164 14.3496 36.5867 14.3496H36.6218ZM40.5125 15H39.5691V6.35742H40.5125V11.3438L42.3816 9.50391H43.5535L41.2917 11.707L43.9578 15H42.7917L40.5125 12.1934V15ZM45.0125 13.5176C45.1218 13.5957 45.2214 13.6719 45.3113 13.7461C45.405 13.8203 45.5105 13.8906 45.6277 13.957C45.7449 14.0195 45.866 14.0742 45.991 14.1211C46.2644 14.2305 46.571 14.2852 46.9109 14.2852C47.4812 14.2852 47.8738 14.1465 48.0886 13.8691C48.2722 13.6309 48.364 13.3965 48.364 13.166C48.364 12.9316 48.3406 12.748 48.2937 12.6152C48.2039 12.3848 48.0242 12.168 47.7546 11.9648C47.6414 11.8867 47.5066 11.8027 47.3503 11.7129L46.3894 11.2383C46.03 11.043 45.7566 10.8535 45.5691 10.6699C45.3816 10.4863 45.241 10.3164 45.1472 10.1602C44.9402 9.8125 44.8367 9.36133 44.8367 8.80664C44.8367 8.25195 45.0378 7.76953 45.4402 7.35938C45.8425 6.94922 46.366 6.74414 47.0105 6.74414C47.4207 6.74414 47.7878 6.79688 48.1121 6.90234C48.4402 7.00781 48.7 7.13477 48.8914 7.2832L48.6687 8.0918C48.2039 7.73242 47.6765 7.55273 47.0867 7.55273C46.7156 7.55273 46.4246 7.67578 46.2136 7.92188C46.0066 8.16797 45.9031 8.48438 45.9031 8.87109C45.9031 9.04688 45.9324 9.20703 45.991 9.35156C46.0886 9.60938 46.2917 9.83984 46.6003 10.043C46.7214 10.1289 46.8894 10.2188 47.1042 10.3125L48.0242 10.7812C48.1882 10.8711 48.3328 10.9609 48.4578 11.0508C48.5867 11.1367 48.7136 11.2422 48.8386 11.3672C49.2332 11.7617 49.4304 12.2715 49.4304 12.8965C49.4304 13.5176 49.2175 14.041 48.7917 14.4668C48.366 14.8926 47.8113 15.1055 47.1277 15.1055C46.3777 15.1055 45.7605 14.9727 45.2761 14.707C45.0144 14.5664 44.8074 14.4434 44.655 14.3379L45.0125 13.5176ZM51.2996 12.252C51.2996 12.6309 51.3464 12.9629 51.4402 13.248C51.5378 13.5293 51.6667 13.748 51.8269 13.9043C51.991 14.0566 52.1667 14.1699 52.3542 14.2441C52.5457 14.3145 52.7488 14.3496 52.9636 14.3496C53.4011 14.3496 53.7781 14.1992 54.0945 13.8984C54.4421 13.5664 54.616 13.0176 54.616 12.252C54.616 11.4902 54.4421 10.9395 54.0945 10.5996C53.7742 10.3027 53.3972 10.1543 52.9636 10.1543C52.5222 10.1543 52.1453 10.3027 51.8328 10.5996C51.4773 10.9395 51.2996 11.4902 51.2996 12.252ZM50.3562 12.252C50.3562 11.0684 50.7371 10.2441 51.4988 9.7793C51.9207 9.52539 52.4089 9.39844 52.9636 9.39844C53.5144 9.39844 54.0046 9.52539 54.4343 9.7793C54.6609 9.91992 54.8582 10.0957 55.0261 10.3066C55.3894 10.7832 55.571 11.4316 55.571 12.252C55.571 13.4395 55.1921 14.2617 54.4343 14.7188C54.0125 14.9766 53.5222 15.1055 52.9636 15.1055C52.4011 15.1055 51.9128 14.9766 51.4988 14.7188C51.2683 14.582 51.0691 14.4062 50.9011 14.1914C50.5378 13.7266 50.3562 13.0801 50.3562 12.252ZM58.1667 14.3496C58.8425 14.3496 59.1804 14.0586 59.1804 13.4766C59.1804 13.125 58.8582 12.8438 58.2136 12.6328L57.6394 12.4336C57.2292 12.2891 56.9246 12.084 56.7253 11.8184C56.53 11.5488 56.4324 11.2324 56.4324 10.8691C56.4324 10.502 56.6023 10.166 56.9421 9.86133C57.282 9.55273 57.7175 9.39844 58.2488 9.39844C58.6003 9.39844 58.9128 9.44531 59.1863 9.53906C59.4597 9.62891 59.6707 9.73242 59.8191 9.84961L59.4851 10.5527C59.364 10.4551 59.1921 10.3633 58.9695 10.2773C58.7468 10.1914 58.5066 10.1484 58.2488 10.1484C57.9949 10.1484 57.7859 10.2246 57.6218 10.377C57.4578 10.5293 57.3757 10.6992 57.3757 10.8867C57.3757 11.0742 57.4382 11.2305 57.5632 11.3555C57.6882 11.4805 57.9402 11.6094 58.3191 11.7422L58.8933 11.9414C59.3113 12.0859 59.6218 12.2754 59.825 12.5098C60.0242 12.748 60.1238 13.0918 60.1238 13.541C60.1238 13.9902 59.9519 14.3633 59.6082 14.6602C59.2644 14.957 58.7957 15.1055 58.2019 15.1055C57.8855 15.1055 57.5808 15.0723 57.2878 15.0059C56.9988 14.9434 56.6746 14.8086 56.3152 14.6016L56.655 13.875C56.9558 14.0547 57.2117 14.1797 57.4226 14.25C57.6335 14.3164 57.8816 14.3496 58.1667 14.3496Z" fill="#303030"/>
<path d="M0.200928 14.6085H4.64712L11.1162 10.0691L11.1183 10.0669L12.1267 9.35934H7.67811L0.200928 14.6085Z" fill="red"/>
<path d="M0.132996 23.2613H12.4603V18.0125H7.60972L0.132996 23.2613Z" fill="red"/>
<path d="M0 14.7521L0.597719 14.0695L0.599626 14.0676C0.604402 14.0607 0.610005 14.0544 0.616308 14.0488V14.0466L12.1076 0.93306V0.930917C12.1138 0.924721 12.1181 0.920669 12.1181 0.918524H12.12C12.1219 0.915638 12.124 0.912854 12.1262 0.91018L12.4837 0.503601L10.9961 1.54913C10.9877 1.55342 10.9815 1.55962 10.9722 1.56367L0 9.2668V14.7521Z" fill="#fff"/>
<path d="M0 14.7521L0.201146 14.6091L7.6781 9.36022L12.4832 5.98864V0.503601L12.1076 0.930917V0.93306L0.616307 14.0466L0.124644 14.6088L0 14.7521Z" fill="url(#paint3_linear_723_15558)"/>
<path d="M0 23.3581L0.083176 23.2627L0.825795 22.4164L0.82794 22.4143L0.834136 22.406C0.838188 22.4038 0.838188 22.4019 0.840333 22.3998C0.842477 22.3976 0.842477 22.3976 0.842477 22.3957H0.844622L0.857253 22.379C0.862063 22.3716 0.867568 22.3647 0.873698 22.3583L4.68165 18.0139L7.66499 14.6094L11.8681 9.8086L11.8848 9.79191C11.8908 9.78617 11.8964 9.77995 11.9015 9.77332L12.2623 9.36054L12.4844 9.10959L12.1269 9.36054L11.1188 10.0679L11.1167 10.07L4.64733 14.6094L0 17.8728V23.3581Z" fill="url(#paint4_linear_723_15558)"/>
<path d="M0 23.3581L0.132747 23.2627L7.60995 18.0141L12.4603 14.6096L12.4842 14.5951V9.10959L12.2621 9.36054L11.8679 9.8086L7.66381 14.6094L4.68165 18.0139L0.873461 22.3581L0.857016 22.3788L0.854871 22.3809L0.844385 22.3955H0.842479C0.842479 22.3974 0.840334 22.3974 0.840334 22.3995L0.0831761 23.2625L0 23.3581Z" fill="url(#paint5_linear_723_15558)"/>
<g style="mix-blend-mode:multiply" opacity="0.24">
<g style="mix-blend-mode:multiply" opacity="0.24">
<path d="M0.200928 14.6082H4.15329L8.10757 9.35934H7.67858L0.200928 14.6082Z" fill="black"/>
</g>
</g>
<g style="mix-blend-mode:multiply" opacity="0.24">
<g style="mix-blend-mode:multiply" opacity="0.24">
<path d="M0.132996 23.2613H4.03937L4.06321 23.2301L7.99556 18.0125H7.61186L0.132996 23.2613Z" fill="black"/>
</g>
</g>
<g style="mix-blend-mode:overlay">
<g style="mix-blend-mode:overlay">
<path d="M0.615967 14.0476L12.1073 0.933997C12.1094 0.931852 12.1073 0.931854 12.1073 0.931854C12.0491 0.990005 11.8749 1.17256 11.6068 1.45474C11.281 1.80531 10.806 2.29912 10.254 2.90495C9.70208 3.51077 9.05098 4.21407 8.36818 4.97837C7.68157 5.74101 6.95968 6.56133 6.23565 7.38283C5.87673 7.7937 5.51782 8.20648 5.1651 8.61306C4.81238 9.01965 4.468 9.42337 4.1341 9.81017C3.4668 10.5881 2.85811 11.3266 2.3269 11.9532C1.79567 12.5797 1.3736 13.115 1.06783 13.4844L0.615967 14.0476Z" fill="#fff"/>
</g>
</g>
<g style="mix-blend-mode:overlay">
<g style="mix-blend-mode:overlay">
<path d="M1.2768 21.8507C1.0797 22.0976 0.94076 22.2719 0.874268 22.3569L4.68245 18.0128L7.66581 14.6083L11.8689 9.80746C11.8027 9.87586 11.6408 10.0458 11.4023 10.2951C11.0889 10.6311 10.6325 11.1054 10.1015 11.6871C9.5705 12.2689 8.94585 12.9422 8.28807 13.6767C7.6303 14.4112 6.93558 15.1974 6.24062 15.9837C5.8941 16.38 5.54948 16.7761 5.21153 17.1662C4.87359 17.5564 4.54137 17.9441 4.22177 18.3176C3.58092 19.0645 2.99583 19.7761 2.48748 20.3777C1.97914 20.9792 1.56922 21.4959 1.2768 21.8507Z" fill="#F2F2F2"/>
</g>
</g>
<g style="mix-blend-mode:screen" opacity="0.4">
<g style="mix-blend-mode:screen" opacity="0.4">
<path d="M0.840088 22.4343C0.845918 22.4343 0.845918 22.4285 0.851101 22.4233L0.885435 22.3779C0.87049 22.3914 0.857223 22.4066 0.845918 22.4233C0.845918 22.4285 0.840088 22.4285 0.840088 22.4343Z" fill="#F2F2F2"/>
</g>
</g>
<g style="mix-blend-mode:multiply" opacity="0.25">
<g style="mix-blend-mode:multiply" opacity="0.25">
<path d="M0 14.7521C0.0748339 14.7044 0.147285 14.6567 0.219974 14.6091C0.680655 14.3102 1.13705 14.0073 1.59558 13.7065C2.12657 13.3579 2.65351 13.0011 3.18044 12.6443C4.23431 11.9348 5.28413 11.219 6.3299 10.497L7.89617 9.40789L7.96457 9.36022H7.67858L12.4832 5.98864V0.503601C12.4436 1.41638 12.4272 2.33131 12.3981 3.24624L12.3524 5.91548C11.844 6.25986 11.34 6.61067 10.8338 6.95695L9.26964 8.04419L7.70742 9.14049L6.1514 10.242C5.11611 10.9788 4.08567 11.7236 3.06009 12.4766C2.54769 12.85 2.03315 13.2232 1.52504 13.605C1.01693 13.9868 0.504295 14.3641 0 14.7521Z" fill="red"/>
</g>
</g>
<g style="mix-blend-mode:multiply" opacity="0.25">
<g style="mix-blend-mode:multiply" opacity="0.25">
<path d="M0 23.3581C0.0498098 23.3268 0.0996197 23.2959 0.147285 23.2627C0.632752 22.9517 1.11417 22.63 1.59558 22.3125C2.12657 21.9662 2.65351 21.6073 3.18044 21.2525C4.23431 20.543 5.28413 19.8266 6.3299 19.1033L7.89617 18.0141H7.61018L12.4606 14.6096L12.4844 14.5951V9.10959C12.4448 10.0243 12.4284 10.9373 12.3993 11.852L12.3536 14.5243C11.8452 14.8666 11.3412 15.2171 10.835 15.5637L9.27083 16.6528L7.70837 17.7462L6.15235 18.8478C5.11642 19.5842 4.086 20.329 3.06104 21.0821C2.54864 21.4555 2.0341 21.829 1.52599 22.2127C1.01455 22.5926 0.504295 22.9701 0 23.3581Z" fill="black"/>
</g>
</g>
<g style="mix-blend-mode:multiply" opacity="0.25">
<g style="mix-blend-mode:multiply" opacity="0.25">
<path d="M3.49951 23.2612H12.4605V18.0126C12.4336 18.4501 12.4169 18.888 12.3983 19.3258C12.3797 19.7636 12.3671 20.1992 12.3526 20.6366C12.3299 21.4602 12.3173 22.281 12.307 23.1054C11.6121 23.0992 10.9169 23.0951 10.2198 23.0973C9.47312 23.0992 8.72621 23.1035 7.97954 23.1158C7.23287 23.1282 6.48787 23.1397 5.74096 23.1657C5.3675 23.174 4.99428 23.1895 4.62083 23.2071C4.43398 23.2133 4.24928 23.2216 4.06267 23.2309C3.87606 23.2402 3.68612 23.2488 3.49951 23.2612Z" fill="black"/>
</g>
</g>
<g style="mix-blend-mode:overlay">
<g style="mix-blend-mode:overlay">
<path d="M0 21.7394C0.0333655 21.0942 0.0476649 20.4488 0.072689 19.8058C0.0934233 19.1814 0.101765 18.5589 0.116303 17.9364C0.570549 17.6316 1.02503 17.3287 1.47309 17.0174L2.87134 16.0527L4.26339 15.0799L5.65139 14.1006L7.03106 13.1089L8.40023 12.1068C8.85662 11.7707 9.31516 11.4394 9.76535 11.0965C10.2155 10.7535 10.6698 10.418 11.1159 10.0695L4.64733 14.6089L0 17.8723V21.7394Z" fill="#F2F2F2"/>
</g>
</g>
<g style="mix-blend-mode:overlay">
<g style="mix-blend-mode:overlay">
<path d="M0 13.8566C0.037417 13.0909 0.0541005 12.3254 0.0831762 11.562L0.128696 9.33796C0.57484 9.03719 1.01669 8.72999 1.46332 8.42708L2.84298 7.47068L4.21859 6.50618L5.58729 5.53644L6.95027 4.55716L8.30515 3.56549C8.75797 3.2335 9.20959 2.90581 9.65574 2.56454C10.1038 2.2285 10.5518 1.89246 10.9958 1.54999C10.9875 1.55428 10.9813 1.56047 10.972 1.56453L0 9.26741V13.8566Z" fill="#F2F2F2"/>
</g>
</g>
<defs>
<linearGradient id="paint0_linear_723_15558" x1="-147.619" y1="249.774" x2="-147.619" y2="243.187" gradientUnits="userSpaceOnUse">
<stop stop-color="#F58033"/>
<stop offset="1" stop-color="#A53826"/>
</linearGradient>
<linearGradient id="paint1_linear_723_15558" x1="-138.957" y1="251.697" x2="-138.957" y2="243.041" gradientUnits="userSpaceOnUse">
<stop stop-color="#233B55"/>
<stop offset="1" stop-color="#131D32"/>
</linearGradient>
<linearGradient id="paint2_linear_723_15558" x1="-153.512" y1="244.851" x2="-145.216" y2="238.933" gradientUnits="userSpaceOnUse">
<stop stop-color="#FCC400"/>
<stop offset="0.162" stop-color="#FBC000"/>
<stop offset="0.307" stop-color="#FBB500"/>
<stop offset="0.446" stop-color="#FBA300"/>
<stop offset="0.581" stop-color="#FA8900"/>
<stop offset="0.712" stop-color="#FA6800"/>
<stop offset="0.842" stop-color="#F93F00"/>
<stop offset="0.967" stop-color="#F81000"/>
<stop offset="1" stop-color="#F80300"/>
</linearGradient>
<linearGradient id="paint3_linear_723_15558" x1="-159.098" y1="245.592" x2="-144.843" y2="245.592" gradientUnits="userSpaceOnUse">
<stop stop-color="#FCC400"/>
<stop offset="0.162" stop-color="#FBC000"/>
<stop offset="0.307" stop-color="#FBB500"/>
<stop offset="0.446" stop-color="#FBA300"/>
<stop offset="0.581" stop-color="#FA8900"/>
<stop offset="0.712" stop-color="#FA6800"/>
<stop offset="0.842" stop-color="#F93F00"/>
<stop offset="0.967" stop-color="#F81000"/>
<stop offset="1" stop-color="#F80300"/>
</linearGradient>
<linearGradient id="paint4_linear_723_15558" x1="-143.483" y1="244.708" x2="-135.867" y2="237.723" gradientUnits="userSpaceOnUse">
<stop stop-color="#C33764"/>
<stop offset="1" stop-color="#1D2671"/>
</linearGradient>
<linearGradient id="paint5_linear_723_15558" x1="-150.497" y1="245.592" x2="-136.252" y2="245.592" gradientUnits="userSpaceOnUse">
<stop stop-color="#C33764"/>
<stop offset="1" stop-color="#1D2671"/>
</linearGradient>
</defs>
</svg>
