<svg width="13" height="24" viewBox="0 0 13 24" fill="none" xmlns="http://www.w3.org/2000/svg">
<path d="M0.200928 14.6085H4.64712L11.1162 10.0691L11.1183 10.0669L12.1267 9.35934H7.67811L0.200928 14.6085Z" fill="url(#paint0_linear_723_15561)"/>
<path d="M0.132996 23.2613H12.4603V18.0125H7.60972L0.132996 23.2613Z" fill="url(#paint1_linear_723_15561)"/>
<path d="M0 14.7521L0.597719 14.0695L0.599626 14.0676C0.604402 14.0607 0.610005 14.0544 0.616308 14.0488V14.0466L12.1076 0.93306V0.930917C12.1138 0.924721 12.1181 0.920669 12.1181 0.918524H12.12C12.1219 0.915638 12.124 0.912854 12.1262 0.91018L12.4837 0.503601L10.9961 1.54913C10.9877 1.55342 10.9815 1.55962 10.9722 1.56367L0 9.2668V14.7521Z" fill="url(#paint2_linear_723_15561)"/>
<path d="M0 14.7521L0.201146 14.6091L7.6781 9.36022L12.4832 5.98864V0.503601L12.1076 0.930917V0.93306L0.616307 14.0466L0.124644 14.6088L0 14.7521Z" fill="url(#paint3_linear_723_15561)"/>
<path d="M0 23.3581L0.083176 23.2627L0.825795 22.4164L0.82794 22.4143L0.834136 22.406C0.838188 22.4038 0.838188 22.4019 0.840332 22.3998C0.842477 22.3976 0.842477 22.3976 0.842477 22.3957H0.844622L0.857253 22.379C0.862063 22.3716 0.867568 22.3647 0.873698 22.3583L4.68165 18.0139L7.66499 14.6094L11.8681 9.8086L11.8848 9.79191C11.8908 9.78617 11.8964 9.77995 11.9015 9.77332L12.2623 9.36054L12.4844 9.10959L12.1269 9.36054L11.1188 10.0679L11.1167 10.07L4.64733 14.6094L0 17.8728V23.3581Z" fill="url(#paint4_linear_723_15561)"/>
<path d="M0 23.3581L0.132747 23.2627L7.60995 18.0141L12.4603 14.6096L12.4842 14.5951V9.10959L12.2621 9.36054L11.8679 9.8086L7.66381 14.6094L4.68165 18.0139L0.873461 22.3581L0.857016 22.3788L0.854871 22.3809L0.844385 22.3955H0.842479C0.842479 22.3974 0.840334 22.3974 0.840334 22.3995L0.0831761 23.2625L0 23.3581Z" fill="url(#paint5_linear_723_15561)"/>
<g style="mix-blend-mode:multiply" opacity="0.24">
<g style="mix-blend-mode:multiply" opacity="0.24">
<path d="M0.200928 14.6082H4.15329L8.10757 9.35934H7.67858L0.200928 14.6082Z" fill="black"/>
</g>
</g>
<g style="mix-blend-mode:multiply" opacity="0.24">
<g style="mix-blend-mode:multiply" opacity="0.24">
<path d="M0.132996 23.2613H4.03937L4.0632 23.2301L7.99556 18.0125H7.61186L0.132996 23.2613Z" fill="black"/>
</g>
</g>
<g style="mix-blend-mode:overlay">
<g style="mix-blend-mode:overlay">
<path d="M0.615967 14.0476L12.1073 0.933997C12.1094 0.931852 12.1073 0.931854 12.1073 0.931854C12.0491 0.990005 11.8749 1.17256 11.6068 1.45474C11.281 1.80531 10.806 2.29912 10.254 2.90495C9.70208 3.51077 9.05098 4.21407 8.36818 4.97838C7.68157 5.74101 6.95968 6.56133 6.23565 7.38283C5.87673 7.7937 5.51782 8.20648 5.1651 8.61306C4.81238 9.01965 4.468 9.42337 4.1341 9.81017C3.4668 10.5881 2.85811 11.3266 2.3269 11.9532C1.79567 12.5797 1.3736 13.115 1.06783 13.4844L0.615967 14.0476Z" fill="#F2F2F2"/>
</g>
</g>
<g style="mix-blend-mode:overlay">
<g style="mix-blend-mode:overlay">
<path d="M1.2768 21.8507C1.0797 22.0976 0.94076 22.2719 0.874268 22.3569L4.68245 18.0128L7.66581 14.6083L11.8689 9.80746C11.8027 9.87586 11.6408 10.0458 11.4023 10.2951C11.0889 10.6311 10.6325 11.1054 10.1015 11.6871C9.5705 12.2689 8.94585 12.9422 8.28807 13.6767C7.6303 14.4112 6.93558 15.1974 6.24062 15.9837C5.8941 16.38 5.54948 16.7761 5.21153 17.1662C4.87359 17.5564 4.54137 17.9441 4.22177 18.3176C3.58092 19.0645 2.99583 19.7761 2.48748 20.3777C1.97914 20.9792 1.56922 21.4959 1.2768 21.8507Z" fill="#F2F2F2"/>
</g>
</g>
<g style="mix-blend-mode:screen" opacity="0.4">
<g style="mix-blend-mode:screen" opacity="0.4">
<path d="M0.840088 22.4343C0.845918 22.4343 0.845918 22.4285 0.851101 22.4233L0.885435 22.3779C0.87049 22.3914 0.857223 22.4066 0.845918 22.4233C0.845918 22.4285 0.840088 22.4285 0.840088 22.4343Z" fill="#F2F2F2"/>
</g>
</g>
<g style="mix-blend-mode:multiply" opacity="0.25">
<g style="mix-blend-mode:multiply" opacity="0.25">
<path d="M0 14.7521C0.0748339 14.7044 0.147285 14.6567 0.219974 14.6091C0.680655 14.3102 1.13705 14.0073 1.59558 13.7065C2.12657 13.3579 2.65351 13.0011 3.18044 12.6443C4.23431 11.9348 5.28413 11.219 6.3299 10.497L7.89617 9.40789L7.96457 9.36022H7.67858L12.4832 5.98864V0.503601C12.4436 1.41638 12.4272 2.33131 12.3981 3.24624L12.3524 5.91548C11.844 6.25986 11.34 6.61067 10.8338 6.95695L9.26963 8.04419L7.70742 9.14049L6.1514 10.242C5.11611 10.9788 4.08567 11.7236 3.06009 12.4766C2.54769 12.85 2.03315 13.2232 1.52504 13.605C1.01693 13.9868 0.504295 14.3641 0 14.7521Z" fill="black"/>
</g>
</g>
<g style="mix-blend-mode:multiply" opacity="0.25">
<g style="mix-blend-mode:multiply" opacity="0.25">
<path d="M0 23.3581C0.0498098 23.3268 0.0996197 23.2959 0.147285 23.2627C0.632752 22.9517 1.11417 22.63 1.59558 22.3125C2.12657 21.9662 2.65351 21.6073 3.18044 21.2525C4.23431 20.543 5.28413 19.8266 6.3299 19.1033L7.89617 18.0141H7.61018L12.4606 14.6096L12.4844 14.5951V9.10959C12.4448 10.0243 12.4284 10.9373 12.3993 11.852L12.3536 14.5243C11.8452 14.8666 11.3412 15.2171 10.835 15.5637L9.27083 16.6528L7.70837 17.7462L6.15235 18.8478C5.11642 19.5842 4.086 20.329 3.06104 21.0821C2.54864 21.4555 2.0341 21.829 1.52599 22.2127C1.01455 22.5926 0.504295 22.9701 0 23.3581Z" fill="black"/>
</g>
</g>
<g style="mix-blend-mode:multiply" opacity="0.25">
<g style="mix-blend-mode:multiply" opacity="0.25">
<path d="M3.49951 23.2612H12.4605V18.0126C12.4336 18.4501 12.4169 18.888 12.3983 19.3258C12.3797 19.7636 12.3671 20.1992 12.3526 20.6366C12.3299 21.4602 12.3173 22.281 12.307 23.1054C11.6121 23.0992 10.9169 23.0951 10.2198 23.0973C9.47312 23.0992 8.72621 23.1035 7.97954 23.1158C7.23287 23.1282 6.48787 23.1397 5.74096 23.1657C5.3675 23.174 4.99428 23.1895 4.62083 23.2071C4.43398 23.2133 4.24928 23.2216 4.06267 23.2309C3.87606 23.2402 3.68612 23.2488 3.49951 23.2612Z" fill="black"/>
</g>
</g>
<g style="mix-blend-mode:overlay">
<g style="mix-blend-mode:overlay">
<path d="M0 21.7394C0.0333655 21.0942 0.0476649 20.4488 0.072689 19.8058C0.0934233 19.1814 0.101765 18.5589 0.116303 17.9364C0.570549 17.6316 1.02503 17.3287 1.47309 17.0174L2.87134 16.0527L4.26339 15.0799L5.65139 14.1006L7.03106 13.1089L8.40023 12.1068C8.85662 11.7707 9.31516 11.4394 9.76535 11.0965C10.2155 10.7535 10.6698 10.418 11.1159 10.0695L4.64733 14.6089L0 17.8723V21.7394Z" fill="#F2F2F2"/>
</g>
</g>
<g style="mix-blend-mode:overlay">
<g style="mix-blend-mode:overlay">
<path d="M0 13.8566C0.037417 13.0909 0.0541005 12.3254 0.0831762 11.562L0.128696 9.33796C0.57484 9.03719 1.01669 8.72999 1.46332 8.42708L2.84298 7.47068L4.21859 6.50618L5.58729 5.53644L6.95027 4.55716L8.30515 3.56549C8.75797 3.2335 9.2096 2.90581 9.65574 2.56454C10.1038 2.2285 10.5518 1.89246 10.9958 1.54999C10.9875 1.55428 10.9813 1.56047 10.972 1.56453L0 9.26741V13.8566Z" fill="#F2F2F2"/>
</g>
</g>
<defs>
<linearGradient id="paint0_linear_723_15561" x1="-147.619" y1="249.774" x2="-147.619" y2="243.187" gradientUnits="userSpaceOnUse">
<stop stop-color="#F58033"/>
<stop offset="1" stop-color="#A53826"/>
</linearGradient>
<linearGradient id="paint1_linear_723_15561" x1="-138.957" y1="251.697" x2="-138.957" y2="243.041" gradientUnits="userSpaceOnUse">
<stop stop-color="#233B55"/>
<stop offset="1" stop-color="#131D32"/>
</linearGradient>
<linearGradient id="paint2_linear_723_15561" x1="-153.512" y1="244.851" x2="-145.216" y2="238.933" gradientUnits="userSpaceOnUse">
<stop stop-color="#FCC400"/>
<stop offset="0.162" stop-color="#FBC000"/>
<stop offset="0.307" stop-color="#FBB500"/>
<stop offset="0.446" stop-color="#FBA300"/>
<stop offset="0.581" stop-color="#FA8900"/>
<stop offset="0.712" stop-color="#FA6800"/>
<stop offset="0.842" stop-color="#F93F00"/>
<stop offset="0.967" stop-color="#F81000"/>
<stop offset="1" stop-color="#F80300"/>
</linearGradient>
<linearGradient id="paint3_linear_723_15561" x1="-159.098" y1="245.592" x2="-144.843" y2="245.592" gradientUnits="userSpaceOnUse">
<stop stop-color="#FCC400"/>
<stop offset="0.162" stop-color="#FBC000"/>
<stop offset="0.307" stop-color="#FBB500"/>
<stop offset="0.446" stop-color="#FBA300"/>
<stop offset="0.581" stop-color="#FA8900"/>
<stop offset="0.712" stop-color="#FA6800"/>
<stop offset="0.842" stop-color="#F93F00"/>
<stop offset="0.967" stop-color="#F81000"/>
<stop offset="1" stop-color="#F80300"/>
</linearGradient>
<linearGradient id="paint4_linear_723_15561" x1="-143.483" y1="244.708" x2="-135.867" y2="237.723" gradientUnits="userSpaceOnUse">
<stop stop-color="#C33764"/>
<stop offset="1" stop-color="#1D2671"/>
</linearGradient>
<linearGradient id="paint5_linear_723_15561" x1="-150.497" y1="245.592" x2="-136.252" y2="245.592" gradientUnits="userSpaceOnUse">
<stop stop-color="#C33764"/>
<stop offset="1" stop-color="#1D2671"/>
</linearGradient>
</defs>
</svg>
